<svg width="31" height="31" viewBox="0 0 31 31" fill="none" xmlns="http://www.w3.org/2000/svg">
<path fill-rule="evenodd" clip-rule="evenodd" d="M15.7746 30.5089C24.0936 30.5089 30.8376 23.7932 30.8376 15.5089C30.8376 7.22461 24.0936 0.508881 15.7746 0.508881C7.45557 0.508881 0.71167 7.22461 0.71167 15.5089C0.71167 17.0369 0.941101 18.5115 1.36752 19.9005C1.47635 19.92 1.65231 19.9646 1.90878 20.0395L1.50845 13.7669C1.50845 13.6519 1.70322 13.5966 1.88165 13.546C1.97958 13.5182 2.0726 13.4918 2.12579 13.4576C2.27106 13.3662 5.2627 14.454 5.42249 14.5262L9.24808 16.2494C10.236 15.6285 11.4175 15.3782 12.5797 15.5467L16.0567 11.3252C16.1003 7.9557 18.8605 5.24086 22.2551 5.23605C25.4269 5.26974 28.0565 7.67651 28.3567 10.8101C28.6763 14.1989 26.1776 17.2025 22.7684 17.525L16.9767 21.6406C16.6233 23.4457 15.3254 24.9234 13.5724 25.5107C10.8849 26.4156 7.96481 24.9812 7.05927 22.3049L5.04477 21.6406C4.89542 21.5934 2.15359 20.4575 1.41125 20.0405C3.34045 26.1098 9.04163 30.5089 15.7746 30.5089ZM25.3545 11.3973C25.3545 13.0987 23.9669 14.478 22.2552 14.478C20.5435 14.478 19.1559 13.0987 19.1559 11.3973C19.1559 9.6959 20.5435 8.31664 22.2552 8.31664C23.9669 8.31664 25.3545 9.6959 25.3545 11.3973ZM24.3235 11.3973C24.3235 12.5325 23.3977 13.4527 22.2557 13.4527C21.1137 13.4527 20.188 12.5325 20.188 11.3973C20.188 10.2622 21.1137 9.34194 22.2557 9.34194C23.3977 9.34194 24.3235 10.2622 24.3235 11.3973ZM10.5804 23.412C10.9969 23.6142 11.4569 23.7201 11.9218 23.7201C12.2753 23.7201 12.6191 23.6623 12.9581 23.5516C13.7377 23.282 14.372 22.7188 14.7304 21.9824C15.4761 20.4469 14.8272 18.6081 13.2874 17.8668C13.0258 17.7416 12.7208 17.8475 12.5949 18.1027C12.469 18.3626 12.5755 18.6658 12.8322 18.791C12.8661 18.8054 12.8999 18.8199 12.9338 18.8391C13.9507 19.359 14.343 20.5961 13.82 21.6069C13.297 22.6178 12.0477 23.0077 11.0356 22.4878C10.7741 22.3626 10.469 22.4685 10.3431 22.7237C10.2172 22.9836 10.3238 23.2868 10.5804 23.412Z" fill="#FFB548"/>
</svg>
