<svg width="31" height="29" viewBox="0 0 31 29" fill="none" xmlns="http://www.w3.org/2000/svg">
<path d="M24.1587 1.16377C23.8594 0.958649 23.478 0.941067 23.1553 1.12274C21.4009 2.13075 19.7052 3.28527 18.1034 4.55701C17.8922 4.72696 17.7631 4.97896 17.7513 5.24855C17.7396 5.51813 17.8452 5.78186 18.0388 5.96939C21.3599 9.12821 25.96 18.8156 27.0162 23.2696C24.7278 19.4017 19.6231 10.3003 16.2845 7.18838C15.9265 6.85433 15.3633 6.85433 15.0053 7.18838C11.6608 10.3003 6.5737 19.4076 4.28536 23.2814C5.34152 18.8274 9.92992 9.12821 13.2509 5.96939C13.4504 5.78186 13.5561 5.51813 13.5443 5.24855C13.5326 4.97896 13.4035 4.72696 13.1923 4.55701C11.5904 3.28527 9.88885 2.13075 8.14033 1.12274C7.82935 0.941067 7.43622 0.958649 7.13698 1.16377C3.05905 3.97096 0.624023 8.58318 0.624023 13.506C0.624023 17.1044 1.92075 20.5738 4.28536 23.2814C7.11351 26.5984 11.2501 28.5089 15.6449 28.5089C20.0397 28.5089 24.1822 26.6043 27.0162 23.2755C29.369 20.5797 30.6658 17.1102 30.6658 13.506C30.6658 8.58318 28.2307 3.97096 24.1587 1.16377Z" fill="#FFB548"/>
</svg>
